<svg width="36" height="36" viewBox="0 0 36 36" fill="none" xmlns="http://www.w3.org/2000/svg">
<path d="M10.5001 16.0149C10.5001 16.0149 11.0795 21.161 13.3361 23.3086C15.5927 25.4561 21.0002 26.0075 21.0002 26.0075C21.0002 26.0075 15.5927 26.5588 13.3361 28.7064C11.0795 30.8539 10.5001 36.0001 10.5001 36.0001C10.5001 36.0001 9.92076 30.8539 7.66412 28.7064C5.40749 26.5588 0 26.0075 0 26.0075C0 26.0075 5.40749 25.4561 7.66412 23.3086C9.92076 21.161 10.5001 16.0149 10.5001 16.0149Z" fill="#DEDEDE"/>
<path d="M25.4996 7.53174C25.4996 7.53174 26.079 12.6779 28.3356 14.8254C30.5922 16.973 35.9997 17.5243 35.9997 17.5243C35.9997 17.5243 30.5922 18.0757 28.3356 20.2232C26.079 22.3708 25.4996 27.5169 25.4996 27.5169C25.4996 27.5169 24.9203 22.3708 22.6636 20.2232C20.407 18.0757 14.9995 17.5243 14.9995 17.5243C14.9995 17.5243 20.407 16.973 22.6636 14.8254C24.9203 12.6779 25.4996 7.53174 25.4996 7.53174Z" fill="#DEDEDE"/>
<path d="M10.5001 0C10.5001 0 11.0795 5.14612 13.3361 7.29368C15.5927 9.44124 21.0002 9.99258 21.0002 9.99258C21.0002 9.99258 15.5927 10.5439 13.3361 12.6915C11.0795 14.839 10.5001 19.9852 10.5001 19.9852C10.5001 19.9852 9.92076 14.839 7.66412 12.6915C5.40749 10.5439 0 9.99258 0 9.99258C0 9.99258 5.40749 9.44124 7.66412 7.29368C9.92076 5.14612 10.5001 0 10.5001 0Z" fill="#DEDEDE"/>
</svg>
