<svg width="36" height="36" viewBox="0 0 36 36" fill="none" xmlns="http://www.w3.org/2000/svg">
<g clip-path="url(#clip0_104_256)">
<path d="M34.6774 17.4801L2.01923 0.629246C1.88649 0.560942 1.73423 0.544871 1.58978 0.581032C1.42945 0.62182 1.29137 0.726324 1.20576 0.871663C1.12014 1.017 1.09398 1.19133 1.13299 1.35648L4.49836 15.5074C4.54912 15.7203 4.70138 15.8931 4.90439 15.9614L10.6708 17.9984L4.9083 20.0355C4.70528 20.1078 4.55302 20.2766 4.50617 20.4895L1.13299 34.6605C1.09785 34.8092 1.11347 34.9659 1.17984 35.0984C1.3321 35.4159 1.7069 35.5444 2.01923 35.3877L34.6774 18.6333C34.7984 18.573 34.896 18.4685 34.9585 18.348C35.1108 18.0266 34.9858 17.6409 34.6774 17.4801ZM4.98248 30.6346L6.94626 22.3739L18.4713 18.3038C18.5611 18.2717 18.6353 18.1993 18.6665 18.1029C18.7212 17.9342 18.6353 17.7534 18.4713 17.6931L6.94626 13.627L4.99028 5.39844L29.5083 18.0507L4.98248 30.6346Z" fill="#456288" fill-opacity="0.5"/>
</g>
<defs>
<clipPath id="clip0_104_256">
<rect width="34.9811" height="36" fill="white" transform="translate(0.811523)"/>
</clipPath>
</defs>
</svg>
