<svg width="17" height="11" viewBox="0 0 17 11" fill="none" xmlns="http://www.w3.org/2000/svg">
<path d="M0.374196 0.420639C0.613866 0.151304 0.938885 0 1.27778 0C1.61667 0 1.94169 0.151304 2.18136 0.420639L8.50772 7.53218L14.8341 0.420639C15.0751 0.158937 15.398 0.0141279 15.7331 0.0174012C16.0682 0.0206745 16.3887 0.171768 16.6257 0.438139C16.8626 0.70451 16.997 1.06485 17 1.44154C17.0029 1.81823 16.874 2.18114 16.6412 2.4521L9.4113 10.5794C9.17163 10.8487 8.84661 11 8.50772 11C8.16882 11 7.8438 10.8487 7.60413 10.5794L0.374196 2.4521C0.134599 2.18268 0 1.81732 0 1.43637C0 1.05541 0.134599 0.690055 0.374196 0.420639Z" fill="black"/>
</svg>
