<svg width="35" height="35" viewBox="0 0 35 35" fill="none" xmlns="http://www.w3.org/2000/svg">
<path d="M24.792 14.5833C24.792 16.9706 23.6472 19.0896 21.8695 20.421L23.6195 22.7544C24.8898 21.8045 25.921 20.5712 26.6309 19.1527C27.3407 17.7342 27.7098 16.1696 27.7087 14.5833H24.792ZM17.5003 7.29167C19.4342 7.29167 21.2889 8.05989 22.6563 9.42735C24.0238 10.7948 24.792 12.6495 24.792 14.5833H27.7087C27.7087 11.8759 26.6331 9.27939 24.7187 7.36495C22.8043 5.45052 20.2077 4.375 17.5003 4.375V7.29167ZM10.2087 14.5833C10.2087 12.6495 10.9769 10.7948 12.3443 9.42735C13.7118 8.05989 15.5665 7.29167 17.5003 7.29167V4.375C14.7929 4.375 12.1964 5.45052 10.2819 7.36495C8.36751 9.27939 7.29199 11.8759 7.29199 14.5833H10.2087ZM13.1312 20.421C12.2231 19.7428 11.4859 18.8618 10.9785 17.8483C10.4712 16.8348 10.2075 15.7168 10.2087 14.5833H7.29199C7.29086 16.1696 7.65991 17.7342 8.3698 19.1527C9.07969 20.5712 10.1108 21.8045 11.3812 22.7544L13.1312 20.421ZM16.0376 28.7919C15.9914 26.5682 15.532 24.3726 14.6828 22.3169L11.9878 23.4325C12.6966 25.149 13.083 26.9865 13.1224 28.8531L16.0376 28.7919ZM19.4574 28.016C18.8498 28.32 18.1797 28.4782 17.5003 28.4782C16.8209 28.4782 16.1509 28.32 15.5432 28.016L14.2395 30.625C15.252 31.1312 16.3684 31.3948 17.5003 31.3948C18.6323 31.3948 19.7487 31.1312 20.7612 30.625L19.4574 28.016ZM20.3178 22.3183C19.4684 24.3735 19.0085 26.5686 18.9616 28.7919L21.8782 28.8531C21.9176 26.9865 22.3041 25.149 23.0128 23.4325L20.3178 22.3183ZM20.7612 30.625C21.091 30.4594 21.3694 30.2068 21.5663 29.8945C21.7632 29.5823 21.871 29.2222 21.8782 28.8531L18.9616 28.7919C18.9656 28.6296 19.0139 28.4716 19.1013 28.3348C19.1887 28.1981 19.3119 28.0878 19.4574 28.016L20.7612 30.625ZM13.1224 28.8531C13.137 29.5881 13.5512 30.2808 14.2395 30.625L15.5432 28.016C15.6888 28.0878 15.8119 28.1981 15.8993 28.3348C15.9867 28.4716 16.0351 28.6296 16.0391 28.7919L13.1224 28.8531ZM11.3812 22.7544C11.5999 22.9206 11.7297 23.0169 11.8201 23.0898C11.912 23.1656 11.8945 23.1627 11.8537 23.1102L14.1578 21.3223C13.8851 20.9694 13.4622 20.669 13.1312 20.421L11.3812 22.7544ZM14.6828 22.3169C14.5691 22.0413 14.4247 21.665 14.1578 21.3223L11.8537 23.1102C11.8347 23.084 11.8303 23.0708 11.8493 23.1102L11.9003 23.224L11.9878 23.4325L14.6828 22.3169ZM21.8695 20.421C21.5385 20.669 21.1141 20.9708 20.8414 21.3223L23.147 23.1102C23.1076 23.1613 23.0887 23.1656 23.1805 23.0912C23.271 23.0169 23.3993 22.9206 23.6195 22.7558L21.8695 20.421ZM23.0128 23.4325L23.1003 23.224L23.1514 23.1102C23.1703 23.0708 23.166 23.084 23.147 23.1102L20.8414 21.3223C20.5745 21.6665 20.4316 22.0413 20.3178 22.3183L23.0128 23.4325Z" fill="black"/>
<path d="M21.8634 23.3334C20.5722 24.1974 19.0536 24.6586 17.5001 24.6586C15.9465 24.6586 14.4279 24.1974 13.1367 23.3334" stroke="black" stroke-width="2.91667"/>
</svg>
